# xmcd CD database file
#
# Track frame offsets:
#	150
#	14755
#	27437
#	38502
#	52445
#	64025
#	75700
#	86782
#	103562
#	117170
#	131422
#	143432
#	154597
#	167330
#	181627
#	192077
#	204762
#	215997
#	229330
#	242020
#	253005
#	270102
#	281352
#
# Disc length: 3891 seconds
#
# Revision: 7
# Processed by: cddbd v1.5.2PL0 Copyright (c) Steve Scherf et al.
# Submitted via: CDex 1.70
#
DISCID=340f3117
DTITLE=Various Artist - Chess Blues Guitar [CD1]
DYEAR=1998
DGENRE=Blues
TTITLE0=Robert Nighthawk - Anna Lee
TTITLE1=Jimmy Rogers - That's All Right
TTITLE2=Johnny Shines - So Glad I Found You
TTITLE3=Joe Hill Lewis - When I Am Gone
TTITLE4=John Lee Hooker - Walkin' the Boogie (Alternate)
TTITLE5=Blue Smitty - Date Bait
TTITLE6=Morris Pejoe - Tired of Crying Over You
TTITLE7=Muddy Waters - Sad, Sad Day
TTITLE8=John Brim - It Was a Dream
TTITLE9=Danny Overbea - Forty Cups of Coffee
TTITLE10=Eddie Boyd - Just a Fool
TTITLE11=Muddy Waters - Loving Man
TTITLE12=Howlin Wolf - I've Got a Woman
TTITLE13=Lowell Fulson - ReconsiderBaby
TTITLE14=J. B. Lenoir - Give Me One More Shot
TTITLE15=Lowell Fulson - Rollin' Blues
TTITLE16=Bo Diddly - Who Do You Love?
TTITLE17=Earl Hooker - Guitar Rumba
TTITLE18=Jody Williams - What Kind of Gal Is That?
TTITLE19=Earl Hooker - Frog Hop
TTITLE20=Jody Williams - Lucky Lou
TTITLE21=Lafayette Thomas - Old Memories
TTITLE22=Chuck Berry - Guitar Boogie
EXTD=YEAR: 1998
EXTT0=
EXTT1=
EXTT2=
EXTT3=
EXTT4=
EXTT5=
EXTT6=
EXTT7=
EXTT8=
EXTT9=
EXTT10=
EXTT11=
EXTT12=
EXTT13=
EXTT14=
EXTT15=
EXTT16=
EXTT17=
EXTT18=
EXTT19=
EXTT20=
EXTT21=
EXTT22=
PLAYORDER=
